<?xml version="1.0" encoding="UTF-8"?><!DOCTYPE svg PUBLIC "-//W3C//DTD SVG 1.1//EN" "http://www.w3.org/Graphics/SVG/1.1/DTD/svg11.dtd"><svg xmlns="http://www.w3.org/2000/svg"><symbol id="back" viewBox="0 0 75 75"><path d="M38.875 48.535v-.008c-.012.004-.016.004 0 .008z"/><path d="M8.352 40.66l19.457 19.457a4.29 4.29 0 0 0 6.062 0 4.283 4.283 0 0 0 0-6.062L21.73 41.914h41.192a4.284 4.284 0 1 0 0-8.57H21.73l12.141-12.141a4.283 4.283 0 0 0-3.031-7.316 4.272 4.272 0 0 0-3.031 1.254L8.352 34.598a4.29 4.29 0 0 0 0 6.062z"/></symbol><symbol id="check" viewBox="0 0 75 75"><path fill-rule="evenodd" clip-rule="evenodd" d="M57.121 13.984l8.043 6.746c.32.27.359.743.09 1.059L32.477 60.855a.758.758 0 0 1-.649.266.758.758 0 0 1-.426-.176L9.578 42.633a.752.752 0 0 1-.094-1.062l6.746-8.04a.753.753 0 0 1 1.063-.09l13.215 11.09 25.554-30.453a.749.749 0 0 1 1.059-.094z"/></symbol><symbol id="chevron-right" viewBox="0 0 24 24"><path d="M5 3l3.057-3L20 12 8.057 24 5 21l9-9z"/></symbol><symbol id="edit" viewBox="0 0 75 75"><path d="M62.988 22.618L23.215 62.391 12.61 51.786l39.773-39.773zM9.957 54.438l10.605 10.605-13.257 2.652zM67.993 17.604l-2.355 2.355L55.032 9.35l2.356-2.355z"/></symbol><symbol id="facebook" viewBox="0 0 32 32"><path d="M26 1H6a5 5 0 0 0-5 5v19.999A5 5 0 0 0 6 31h10V17.875h-3.75v-3.75H16v-2.812a4.689 4.689 0 0 1 4.688-4.688h4.688v3.75h-4.688a.938.938 0 0 0-.938.938v2.812h5.156l-.938 3.75H19.75V31H26a5 5 0 0 0 5-5.001V6a5 5 0 0 0-5-5z"/></symbol><symbol id="google-plus" viewBox="0 0 48 48"><path d="M48 22h-5v-5h-4v5h-5v4h5v5h4v-5h5m-32-5v6.24h8.721C24.05 31 20.79 33.74 16 33.74c-5.28 0-9.57-4.471-9.57-9.75 0-5.28 4.29-9.74 9.57-9.74 2.38 0 4.51.82 6.19 2.42v.01l4.51-4.51C23.93 9.59 20.32 8 16 8 7.16 8 0 15.16 0 24s7.16 16 16 16c9.24 0 15.359-6.5 15.359-15.64 0-1.17-.109-2.29-.31-3.36H16z"/></symbol><symbol id="menu" viewBox="0 0 24 24"><path d="M24 6H0V2h24v4zm0 4H0v4h24v-4zm0 8H0v4h24v-4z"/></symbol><symbol id="share" viewBox="0 0 32 32"><path d="M5.688 10.376c1.323 0 2.518-.55 3.369-1.43l12.627 6.312a4.782 4.782 0 0 0 0 1.484L9.057 23.055a4.688 4.688 0 1 0 1.26 2.516l12.627-6.313a4.67 4.67 0 0 0 3.369 1.431 4.69 4.69 0 0 0-.001-9.377 4.668 4.668 0 0 0-3.369 1.431L10.316 6.43a4.689 4.689 0 0 0-4.629-5.429 4.688 4.688 0 0 0 .001 9.375z"/></symbol><symbol id="trash" viewBox="0 0 75 75"><path d="M31.309 25.867h-3.938v32.801h3.938V25.867zm9.183 0h-3.937v32.801h3.937V25.867zm9.184 0h-3.938v32.801h3.938V25.867zm7.875 39.551H19.5V19.496h38.051v45.922zM14.25 10.312h47.234v5.25H14.25z"/><path d="M31.309 6.375H44.43v3.938H31.309z"/></symbol><symbol id="trophy" viewBox="0 0 75 75"><path d="M7.426 10.867h7.219c1.117 9.613 3.675 18.082 7.199 24.473-7.481-3.43-13.18-12.871-14.418-24.473zm60.148 0c-1.215 11.391-6.727 20.695-14.008 24.281 3.465-6.367 5.98-14.765 7.09-24.281h6.918zM49.352 41.344c13.012-1.672 23.203-16.801 23.203-35.239H61.078c.129-2.003.219-4.031.219-6.105H14.008c0 2.074.086 4.102.215 6.105H2.445c0 18.586 10.36 33.801 23.524 35.262.875 1 1.773 1.906 2.711 2.68h-.489v4.762h4.731v11.906h-4.731v4.762h-4.73V75h28.375v-9.523h-4.73v-4.762h-4.73V48.809h4.73v-4.762h-.484c.944-.781 1.851-1.692 2.73-2.703z"/></symbol><symbol id="twitter" viewBox="0 0 32 32"><path d="M31 6.696c-1.103.489-2.291.82-3.536.969a6.184 6.184 0 0 0 2.708-3.404 12.316 12.316 0 0 1-3.909 1.493 6.147 6.147 0 0 0-4.493-1.943 6.154 6.154 0 0 0-6.154 6.154c0 .483.055.953.159 1.402a17.474 17.474 0 0 1-12.686-6.43 6.14 6.14 0 0 0-.833 3.094 6.153 6.153 0 0 0 2.737 5.123 6.108 6.108 0 0 1-2.786-.77c-.002.025-.002.052-.002.078a6.158 6.158 0 0 0 4.937 6.034 6.117 6.117 0 0 1-2.78.105 6.163 6.163 0 0 0 5.75 4.274 12.347 12.347 0 0 1-7.645 2.635c-.496 0-.985-.029-1.467-.086a17.418 17.418 0 0 0 9.434 2.765c11.321 0 17.512-9.379 17.512-17.512 0-.268-.005-.533-.018-.796A12.505 12.505 0 0 0 31 6.696z"/></symbol></svg>